<?xml version="1.0" encoding="UTF-8" standalone="no"?>
<!DOCTYPE svg PUBLIC "-//W3C//DTD SVG 1.1//EN"
 "http://www.w3.org/Graphics/SVG/1.1/DTD/svg11.dtd">
<!-- Generated by graphviz version 2.38.0 (20140413.2041)
 -->
<!-- Title: dependencies Pages: 1 -->
<svg width="4500pt" height="284pt"
 viewBox="0.00 0.00 4500.00 284.00" xmlns="http://www.w3.org/2000/svg" xmlns:xlink="http://www.w3.org/1999/xlink">
<g id="graph0" class="graph" transform="scale(1 1) rotate(0) translate(4 280)">
<title>dependencies</title>
<polygon fill="white" stroke="none" points="-4,4 -4,-280 4496,-280 4496,4 -4,4"/>
<text text-anchor="start" x="2225.01" y="-42.4" font-family="sans-serif" font-weight="bold" font-size="14.00">Legend</text>
<polygon fill="#ffffb3" stroke="none" points="2012,-10 2012,-30 2032,-30 2032,-10 2012,-10"/>
<text text-anchor="start" x="2035.63" y="-15.4" font-family="sans-serif" font-size="14.00"> &#160;Declarations</text>
<polygon fill="#8dd3c7" stroke="none" points="2125,-10 2125,-30 2145,-30 2145,-10 2125,-10"/>
<text text-anchor="start" x="2148.73" y="-15.4" font-family="sans-serif" font-size="14.00"> &#160;Module</text>
<polygon fill="#80b1d3" stroke="none" points="2211,-10 2211,-30 2231,-30 2231,-10 2211,-10"/>
<text text-anchor="start" x="2234.78" y="-15.4" font-family="sans-serif" font-size="14.00"> &#160;Bootstrap</text>
<polygon fill="#fdb462" stroke="none" points="2308,-10 2308,-30 2328,-30 2328,-10 2308,-10"/>
<text text-anchor="start" x="2331.67" y="-15.4" font-family="sans-serif" font-size="14.00"> &#160;Providers</text>
<polygon fill="#fb8072" stroke="none" points="2404,-10 2404,-30 2424,-30 2424,-10 2404,-10"/>
<text text-anchor="start" x="2427.73" y="-15.4" font-family="sans-serif" font-size="14.00"> &#160;Exports</text>
<g id="clust1" class="cluster"><title>cluster_AppRoutingModule</title>
<polygon fill="none" stroke="black" stroke-dasharray="1,5" points="8,-70 8,-268 218,-268 218,-70 8,-70"/>
</g>
<g id="clust3" class="cluster"><title>cluster_AppRoutingModule_imports</title>
<polygon fill="none" stroke="black" points="16,-78 16,-130 210,-130 210,-78 16,-78"/>
</g>
<g id="clust4" class="cluster"><title>cluster_AppRoutingModule_exports</title>
<polygon fill="none" stroke="black" points="54,-208 54,-260 172,-260 172,-208 54,-208"/>
</g>
<g id="clust7" class="cluster"><title>cluster_StarRatingModule</title>
<polygon fill="none" stroke="black" stroke-dasharray="1,5" points="226,-70 226,-268 814,-268 814,-70 226,-70"/>
</g>
<g id="clust8" class="cluster"><title>cluster_StarRatingModule_declarations</title>
<polygon fill="none" stroke="black" points="552,-78 552,-130 806,-130 806,-78 552,-78"/>
</g>
<g id="clust10" class="cluster"><title>cluster_StarRatingModule_imports</title>
<polygon fill="none" stroke="black" points="416,-78 416,-130 544,-130 544,-78 416,-78"/>
</g>
<g id="clust11" class="cluster"><title>cluster_StarRatingModule_exports</title>
<polygon fill="none" stroke="black" points="365,-208 365,-260 625,-260 625,-208 365,-208"/>
</g>
<g id="clust13" class="cluster"><title>cluster_StarRatingModule_providers</title>
<polygon fill="none" stroke="black" points="234,-78 234,-130 408,-130 408,-78 234,-78"/>
</g>
<g id="clust15" class="cluster"><title>cluster_AppModule</title>
<polygon fill="none" stroke="black" stroke-dasharray="1,5" points="822,-70 822,-268 4484,-268 4484,-70 822,-70"/>
</g>
<g id="clust16" class="cluster"><title>cluster_AppModule_declarations</title>
<polygon fill="none" stroke="black" points="2527,-78 2527,-130 4476,-130 4476,-78 2527,-78"/>
</g>
<g id="clust31" class="cluster"><title>cluster_AppModule_imports</title>
<polygon fill="none" stroke="black" points="1836,-78 1836,-130 2519,-130 2519,-78 1836,-78"/>
</g>
<g id="clust33" class="cluster"><title>cluster_AppModule_bootstrap</title>
<polygon fill="none" stroke="black" points="2527,-208 2527,-260 2651,-260 2651,-208 2527,-208"/>
</g>
<g id="clust34" class="cluster"><title>cluster_AppModule_providers</title>
<polygon fill="none" stroke="black" points="830,-78 830,-130 1828,-130 1828,-78 830,-78"/>
</g>
<!-- RouterModule.forRoot(args) -->
<g id="node1" class="node"><title>RouterModule.forRoot(args)</title>
<polygon fill="#8dd3c7" stroke="black" points="201.842,-122 198.842,-126 177.842,-126 174.842,-122 24.1581,-122 24.1581,-86 201.842,-86 201.842,-122"/>
<text text-anchor="middle" x="113" y="-99.8" font-family="Times,serif" font-size="14.00">RouterModule.forRoot(args)</text>
</g>
<!-- AppRoutingModule -->
<g id="node2" class="node"><title>AppRoutingModule</title>
<polygon fill="#8dd3c7" stroke="black" points="177.274,-187 174.274,-191 153.274,-191 150.274,-187 48.7256,-187 48.7256,-151 177.274,-151 177.274,-187"/>
<text text-anchor="middle" x="113" y="-164.8" font-family="Times,serif" font-size="14.00">AppRoutingModule</text>
</g>
<!-- RouterModule.forRoot(args)&#45;&gt;AppRoutingModule -->
<g id="edge1" class="edge"><title>RouterModule.forRoot(args)&#45;&gt;AppRoutingModule</title>
<path fill="none" stroke="black" d="M113,-122.106C113,-122.106 113,-140.991 113,-140.991"/>
<polygon fill="black" stroke="black" points="109.5,-140.991 113,-150.991 116.5,-140.991 109.5,-140.991"/>
</g>
<!-- RouterModule  -->
<g id="node3" class="node"><title>RouterModule </title>
<polygon fill="#fb8072" stroke="black" points="163.652,-252 62.3477,-252 62.3477,-216 163.652,-216 163.652,-252"/>
<text text-anchor="middle" x="113" y="-229.8" font-family="Times,serif" font-size="14.00">RouterModule </text>
</g>
<!-- AppRoutingModule&#45;&gt;RouterModule  -->
<g id="edge2" class="edge"><title>AppRoutingModule&#45;&gt;RouterModule </title>
<path fill="none" stroke="black" stroke-dasharray="5,2" d="M113,-187.106C113,-187.106 113,-205.991 113,-205.991"/>
<polygon fill="black" stroke="black" points="109.5,-205.991 113,-215.991 116.5,-205.991 109.5,-205.991"/>
</g>
<!-- StarRatingComponent -->
<g id="node4" class="node"><title>StarRatingComponent</title>
<polygon fill="#ffffb3" stroke="black" points="797.713,-122 656.287,-122 656.287,-86 797.713,-86 797.713,-122"/>
<text text-anchor="middle" x="727" y="-99.8" font-family="Times,serif" font-size="14.00">StarRatingComponent</text>
</g>
<!-- StarRatingModule -->
<g id="node5" class="node"><title>StarRatingModule</title>
<polygon fill="#8dd3c7" stroke="black" points="539.931,-187 536.931,-191 515.931,-191 512.931,-187 420.069,-187 420.069,-151 539.931,-151 539.931,-187"/>
<text text-anchor="middle" x="480" y="-164.8" font-family="Times,serif" font-size="14.00">StarRatingModule</text>
</g>
<!-- StarRatingComponent&#45;&gt;StarRatingModule -->
<g id="edge3" class="edge"><title>StarRatingComponent&#45;&gt;StarRatingModule</title>
<path fill="none" stroke="black" d="M727,-122.38C727,-146.279 727,-185 727,-185 727,-185 549.792,-185 549.792,-185"/>
<polygon fill="black" stroke="black" points="549.792,-181.5 539.792,-185 549.792,-188.5 549.792,-181.5"/>
</g>
<!-- StarRatingComponent  -->
<g id="node7" class="node"><title>StarRatingComponent </title>
<polygon fill="#fb8072" stroke="black" points="617.213,-252 472.787,-252 472.787,-216 617.213,-216 617.213,-252"/>
<text text-anchor="middle" x="545" y="-229.8" font-family="Times,serif" font-size="14.00">StarRatingComponent </text>
</g>
<!-- StarRatingModule&#45;&gt;StarRatingComponent  -->
<g id="edge5" class="edge"><title>StarRatingModule&#45;&gt;StarRatingComponent </title>
<path fill="none" stroke="black" stroke-dasharray="5,2" d="M506.179,-187.106C506.179,-187.106 506.179,-205.991 506.179,-205.991"/>
<polygon fill="black" stroke="black" points="502.679,-205.991 506.179,-215.991 509.679,-205.991 502.679,-205.991"/>
</g>
<!-- EXPORTS  -->
<g id="node9" class="node"><title>EXPORTS </title>
<polygon fill="#fb8072" stroke="black" points="454.721,-252 373.279,-252 373.279,-216 454.721,-216 454.721,-252"/>
<text text-anchor="middle" x="414" y="-229.8" font-family="Times,serif" font-size="14.00">EXPORTS </text>
</g>
<!-- StarRatingModule&#45;&gt;EXPORTS  -->
<g id="edge8" class="edge"><title>StarRatingModule&#45;&gt;EXPORTS </title>
<path fill="none" stroke="black" stroke-dasharray="5,2" d="M437.572,-187.106C437.572,-187.106 437.572,-205.991 437.572,-205.991"/>
<polygon fill="black" stroke="black" points="434.072,-205.991 437.572,-215.991 441.072,-205.991 434.072,-205.991"/>
</g>
<!-- CommonModule -->
<g id="node6" class="node"><title>CommonModule</title>
<polygon fill="#8dd3c7" stroke="black" points="535.668,-122 532.668,-126 511.668,-126 508.668,-122 424.332,-122 424.332,-86 535.668,-86 535.668,-122"/>
<text text-anchor="middle" x="480" y="-99.8" font-family="Times,serif" font-size="14.00">CommonModule</text>
</g>
<!-- CommonModule&#45;&gt;StarRatingModule -->
<g id="edge4" class="edge"><title>CommonModule&#45;&gt;StarRatingModule</title>
<path fill="none" stroke="black" d="M461.389,-122.106C461.389,-122.106 461.389,-140.991 461.389,-140.991"/>
<polygon fill="black" stroke="black" points="457.889,-140.991 461.389,-150.991 464.889,-140.991 457.889,-140.991"/>
</g>
<!-- CommonModule&#45;&gt;StarRatingModule -->
<g id="edge7" class="edge"><title>CommonModule&#45;&gt;StarRatingModule</title>
<path fill="none" stroke="black" d="M498.611,-122.106C498.611,-122.106 498.611,-140.991 498.611,-140.991"/>
<polygon fill="black" stroke="black" points="495.111,-140.991 498.611,-150.991 502.111,-140.991 495.111,-140.991"/>
</g>
<!-- EXPORTS -->
<g id="node8" class="node"><title>EXPORTS</title>
<polygon fill="#ffffb3" stroke="black" points="638.221,-122 559.779,-122 559.779,-86 638.221,-86 638.221,-122"/>
<text text-anchor="middle" x="599" y="-99.8" font-family="Times,serif" font-size="14.00">EXPORTS</text>
</g>
<!-- EXPORTS&#45;&gt;StarRatingModule -->
<g id="edge6" class="edge"><title>EXPORTS&#45;&gt;StarRatingModule</title>
<path fill="none" stroke="black" d="M588.623,-122.323C588.623,-145.66 588.623,-183 588.623,-183 588.623,-183 550.03,-183 550.03,-183"/>
<polygon fill="black" stroke="black" points="550.03,-179.5 540.03,-183 550.03,-186.5 550.03,-179.5"/>
</g>
<!-- StarRatingConfig -->
<g id="node10" class="node"><title>StarRatingConfig</title>
<ellipse fill="#fdb462" stroke="black" cx="321" cy="-104" rx="79.3309" ry="18"/>
<text text-anchor="middle" x="321" y="-99.8" font-family="Times,serif" font-size="14.00">StarRatingConfig</text>
</g>
<!-- StarRatingConfig&#45;&gt;StarRatingModule -->
<g id="edge9" class="edge"><title>StarRatingConfig&#45;&gt;StarRatingModule</title>
<path fill="none" stroke="black" d="M386.653,-114.156C386.653,-132.438 386.653,-169 386.653,-169 386.653,-169 410.089,-169 410.089,-169"/>
<polygon fill="black" stroke="black" points="410.09,-172.5 420.089,-169 410.089,-165.5 410.09,-172.5"/>
</g>
<!-- AppComponent -->
<g id="node11" class="node"><title>AppComponent</title>
<polygon fill="#ffffb3" stroke="black" points="4467.94,-122 4362.06,-122 4362.06,-86 4467.94,-86 4467.94,-122"/>
<text text-anchor="middle" x="4415" y="-99.8" font-family="Times,serif" font-size="14.00">AppComponent</text>
</g>
<!-- AppModule -->
<g id="node25" class="node"><title>AppModule</title>
<polygon fill="#8dd3c7" stroke="black" points="2630.66,-187 2627.66,-191 2606.66,-191 2603.66,-187 2547.34,-187 2547.34,-151 2630.66,-151 2630.66,-187"/>
<text text-anchor="middle" x="2589" y="-164.8" font-family="Times,serif" font-size="14.00">AppModule</text>
</g>
<!-- AppComponent&#45;&gt;AppModule -->
<g id="edge10" class="edge"><title>AppComponent&#45;&gt;AppModule</title>
<path fill="none" stroke="black" d="M4415,-122.38C4415,-146.279 4415,-185 4415,-185 4415,-185 2641.01,-185 2641.01,-185"/>
<polygon fill="black" stroke="black" points="2641.01,-181.5 2631.01,-185 2641.01,-188.5 2641.01,-181.5"/>
</g>
<!-- ContactComponent -->
<g id="node12" class="node"><title>ContactComponent</title>
<polygon fill="#ffffb3" stroke="black" points="4344.38,-122 4219.62,-122 4219.62,-86 4344.38,-86 4344.38,-122"/>
<text text-anchor="middle" x="4282" y="-99.8" font-family="Times,serif" font-size="14.00">ContactComponent</text>
</g>
<!-- ContactComponent&#45;&gt;AppModule -->
<g id="edge11" class="edge"><title>ContactComponent&#45;&gt;AppModule</title>
<path fill="none" stroke="black" d="M4282,-122.091C4282,-145.133 4282,-182 4282,-182 4282,-182 2640.85,-182 2640.85,-182"/>
<polygon fill="black" stroke="black" points="2640.85,-178.5 2630.85,-182 2640.85,-185.5 2640.85,-178.5"/>
</g>
<!-- RegisterComponent -->
<g id="node13" class="node"><title>RegisterComponent</title>
<polygon fill="#ffffb3" stroke="black" points="4201.98,-122 4074.02,-122 4074.02,-86 4201.98,-86 4201.98,-122"/>
<text text-anchor="middle" x="4138" y="-99.8" font-family="Times,serif" font-size="14.00">RegisterComponent</text>
</g>
<!-- RegisterComponent&#45;&gt;AppModule -->
<g id="edge12" class="edge"><title>RegisterComponent&#45;&gt;AppModule</title>
<path fill="none" stroke="black" d="M4138,-122.011C4138,-144.485 4138,-180 4138,-180 4138,-180 2640.83,-180 2640.83,-180"/>
<polygon fill="black" stroke="black" points="2640.83,-176.5 2630.83,-180 2640.83,-183.5 2640.83,-176.5"/>
</g>
<!-- SigninComponent -->
<g id="node14" class="node"><title>SigninComponent</title>
<polygon fill="#ffffb3" stroke="black" points="4055.9,-122 3938.1,-122 3938.1,-86 4055.9,-86 4055.9,-122"/>
<text text-anchor="middle" x="3997" y="-99.8" font-family="Times,serif" font-size="14.00">SigninComponent</text>
</g>
<!-- SigninComponent&#45;&gt;AppModule -->
<g id="edge13" class="edge"><title>SigninComponent&#45;&gt;AppModule</title>
<path fill="none" stroke="black" d="M3997,-122.045C3997,-143.662 3997,-177 3997,-177 3997,-177 2640.76,-177 2640.76,-177"/>
<polygon fill="black" stroke="black" points="2640.76,-173.5 2630.76,-177 2640.76,-180.5 2640.76,-173.5"/>
</g>
<!-- AdModifyComponent -->
<g id="node15" class="node"><title>AdModifyComponent</title>
<polygon fill="#ffffb3" stroke="black" points="3920.44,-122 3779.56,-122 3779.56,-86 3920.44,-86 3920.44,-122"/>
<text text-anchor="middle" x="3850" y="-99.8" font-family="Times,serif" font-size="14.00">AdModifyComponent</text>
</g>
<!-- AdModifyComponent&#45;&gt;AppModule -->
<g id="edge14" class="edge"><title>AdModifyComponent&#45;&gt;AppModule</title>
<path fill="none" stroke="black" d="M3850,-122.284C3850,-143.321 3850,-175 3850,-175 3850,-175 2640.96,-175 2640.96,-175"/>
<polygon fill="black" stroke="black" points="2640.96,-171.5 2630.96,-175 2640.96,-178.5 2640.96,-171.5"/>
</g>
<!-- AdminComponent -->
<g id="node16" class="node"><title>AdminComponent</title>
<polygon fill="#ffffb3" stroke="black" points="3762.22,-122 3641.78,-122 3641.78,-86 3762.22,-86 3762.22,-122"/>
<text text-anchor="middle" x="3702" y="-99.8" font-family="Times,serif" font-size="14.00">AdminComponent</text>
</g>
<!-- AdminComponent&#45;&gt;AppModule -->
<g id="edge15" class="edge"><title>AdminComponent&#45;&gt;AppModule</title>
<path fill="none" stroke="black" d="M3702,-122.223C3702,-142.365 3702,-172 3702,-172 3702,-172 2640.94,-172 2640.94,-172"/>
<polygon fill="black" stroke="black" points="2640.94,-168.5 2630.94,-172 2640.94,-175.5 2640.94,-168.5"/>
</g>
<!-- FooterComponent -->
<g id="node17" class="node"><title>FooterComponent</title>
<polygon fill="#ffffb3" stroke="black" points="3623.88,-122 3506.12,-122 3506.12,-86 3623.88,-86 3623.88,-122"/>
<text text-anchor="middle" x="3565" y="-99.8" font-family="Times,serif" font-size="14.00">FooterComponent</text>
</g>
<!-- FooterComponent&#45;&gt;AppModule -->
<g id="edge16" class="edge"><title>FooterComponent&#45;&gt;AppModule</title>
<path fill="none" stroke="black" d="M3565,-122.106C3565,-141.339 3565,-169 3565,-169 3565,-169 2640.94,-169 2640.94,-169"/>
<polygon fill="black" stroke="black" points="2640.94,-165.5 2630.94,-169 2640.94,-172.5 2640.94,-165.5"/>
</g>
<!-- HeaderComponent -->
<g id="node18" class="node"><title>HeaderComponent</title>
<polygon fill="#ffffb3" stroke="black" points="3487.74,-122 3366.26,-122 3366.26,-86 3487.74,-86 3487.74,-122"/>
<text text-anchor="middle" x="3427" y="-99.8" font-family="Times,serif" font-size="14.00">HeaderComponent</text>
</g>
<!-- HeaderComponent&#45;&gt;AppModule -->
<g id="edge17" class="edge"><title>HeaderComponent&#45;&gt;AppModule</title>
<path fill="none" stroke="black" d="M3427,-122.222C3427,-140.829 3427,-167 3427,-167 3427,-167 2640.84,-167 2640.84,-167"/>
<polygon fill="black" stroke="black" points="2640.84,-163.5 2630.84,-167 2640.84,-170.5 2640.84,-163.5"/>
</g>
<!-- IndexComponent -->
<g id="node19" class="node"><title>IndexComponent</title>
<polygon fill="#ffffb3" stroke="black" points="3348.71,-122 3235.29,-122 3235.29,-86 3348.71,-86 3348.71,-122"/>
<text text-anchor="middle" x="3292" y="-99.8" font-family="Times,serif" font-size="14.00">IndexComponent</text>
</g>
<!-- IndexComponent&#45;&gt;AppModule -->
<g id="edge18" class="edge"><title>IndexComponent&#45;&gt;AppModule</title>
<path fill="none" stroke="black" d="M3292,-122.002C3292,-139.675 3292,-164 3292,-164 3292,-164 2640.87,-164 2640.87,-164"/>
<polygon fill="black" stroke="black" points="2640.87,-160.5 2630.87,-164 2640.87,-167.5 2640.87,-160.5"/>
</g>
<!-- NavbarComponent -->
<g id="node20" class="node"><title>NavbarComponent</title>
<polygon fill="#ffffb3" stroke="black" points="3217.03,-122 3094.97,-122 3094.97,-86 3217.03,-86 3217.03,-122"/>
<text text-anchor="middle" x="3156" y="-99.8" font-family="Times,serif" font-size="14.00">NavbarComponent</text>
</g>
<!-- NavbarComponent&#45;&gt;AppModule -->
<g id="edge19" class="edge"><title>NavbarComponent&#45;&gt;AppModule</title>
<path fill="none" stroke="black" d="M3156,-122.034C3156,-139.06 3156,-162 3156,-162 3156,-162 2640.69,-162 2640.69,-162"/>
<polygon fill="black" stroke="black" points="2640.69,-158.5 2630.69,-162 2640.69,-165.5 2640.69,-158.5"/>
</g>
<!-- NewOfferComponent -->
<g id="node21" class="node"><title>NewOfferComponent</title>
<polygon fill="#ffffb3" stroke="black" points="3077.06,-122 2938.94,-122 2938.94,-86 3077.06,-86 3077.06,-122"/>
<text text-anchor="middle" x="3008" y="-99.8" font-family="Times,serif" font-size="14.00">NewOfferComponent</text>
</g>
<!-- NewOfferComponent&#45;&gt;AppModule -->
<g id="edge20" class="edge"><title>NewOfferComponent&#45;&gt;AppModule</title>
<path fill="none" stroke="black" d="M3008,-122.009C3008,-138.049 3008,-159 3008,-159 3008,-159 2640.71,-159 2640.71,-159"/>
<polygon fill="black" stroke="black" points="2640.71,-155.5 2630.71,-159 2640.71,-162.5 2640.71,-155.5"/>
</g>
<!-- OfferComponent -->
<g id="node22" class="node"><title>OfferComponent</title>
<polygon fill="#ffffb3" stroke="black" points="2920.64,-122 2809.36,-122 2809.36,-86 2920.64,-86 2920.64,-122"/>
<text text-anchor="middle" x="2865" y="-99.8" font-family="Times,serif" font-size="14.00">OfferComponent</text>
</g>
<!-- OfferComponent&#45;&gt;AppModule -->
<g id="edge21" class="edge"><title>OfferComponent&#45;&gt;AppModule</title>
<path fill="none" stroke="black" d="M2865,-122.24C2865,-137.571 2865,-157 2865,-157 2865,-157 2640.92,-157 2640.92,-157"/>
<polygon fill="black" stroke="black" points="2640.92,-153.5 2630.92,-157 2640.92,-160.5 2640.92,-153.5"/>
</g>
<!-- EditUserComponent -->
<g id="node23" class="node"><title>EditUserComponent</title>
<polygon fill="#ffffb3" stroke="black" points="2791.59,-122 2660.41,-122 2660.41,-86 2791.59,-86 2791.59,-122"/>
<text text-anchor="middle" x="2726" y="-99.8" font-family="Times,serif" font-size="14.00">EditUserComponent</text>
</g>
<!-- EditUserComponent&#45;&gt;AppModule -->
<g id="edge22" class="edge"><title>EditUserComponent&#45;&gt;AppModule</title>
<path fill="none" stroke="black" d="M2726,-122.051C2726,-136.373 2726,-154 2726,-154 2726,-154 2640.85,-154 2640.85,-154"/>
<polygon fill="black" stroke="black" points="2640.85,-150.5 2630.85,-154 2640.85,-157.5 2640.85,-150.5"/>
</g>
<!-- UserComponent -->
<g id="node24" class="node"><title>UserComponent</title>
<polygon fill="#ffffb3" stroke="black" points="2642.76,-122 2535.24,-122 2535.24,-86 2642.76,-86 2642.76,-122"/>
<text text-anchor="middle" x="2589" y="-99.8" font-family="Times,serif" font-size="14.00">UserComponent</text>
</g>
<!-- UserComponent&#45;&gt;AppModule -->
<g id="edge23" class="edge"><title>UserComponent&#45;&gt;AppModule</title>
<path fill="none" stroke="black" d="M2589,-122.106C2589,-122.106 2589,-140.991 2589,-140.991"/>
<polygon fill="black" stroke="black" points="2585.5,-140.991 2589,-150.991 2592.5,-140.991 2585.5,-140.991"/>
</g>
<!-- AppComponent  -->
<g id="node32" class="node"><title>AppComponent </title>
<polygon fill="#80b1d3" stroke="black" points="2643.44,-252 2534.56,-252 2534.56,-216 2643.44,-216 2643.44,-252"/>
<text text-anchor="middle" x="2589" y="-229.8" font-family="Times,serif" font-size="14.00">AppComponent </text>
</g>
<!-- AppModule&#45;&gt;AppComponent  -->
<g id="edge30" class="edge"><title>AppModule&#45;&gt;AppComponent </title>
<path fill="none" stroke="black" stroke-dasharray="1,5" d="M2589,-187.106C2589,-187.106 2589,-205.991 2589,-205.991"/>
<polygon fill="black" stroke="black" points="2585.5,-205.991 2589,-215.991 2592.5,-205.991 2585.5,-205.991"/>
</g>
<!-- BrowserModule -->
<g id="node26" class="node"><title>BrowserModule</title>
<polygon fill="#8dd3c7" stroke="black" points="2511.47,-122 2508.47,-126 2487.47,-126 2484.47,-122 2404.53,-122 2404.53,-86 2511.47,-86 2511.47,-122"/>
<text text-anchor="middle" x="2458" y="-99.8" font-family="Times,serif" font-size="14.00">BrowserModule</text>
</g>
<!-- BrowserModule&#45;&gt;AppModule -->
<g id="edge24" class="edge"><title>BrowserModule&#45;&gt;AppModule</title>
<path fill="none" stroke="black" d="M2458,-122.051C2458,-136.373 2458,-154 2458,-154 2458,-154 2537.19,-154 2537.19,-154"/>
<polygon fill="black" stroke="black" points="2537.19,-157.5 2547.19,-154 2537.19,-150.5 2537.19,-157.5"/>
</g>
<!-- FormsModule -->
<g id="node27" class="node"><title>FormsModule</title>
<polygon fill="#8dd3c7" stroke="black" points="2386.83,-122 2383.83,-126 2362.83,-126 2359.83,-122 2291.17,-122 2291.17,-86 2386.83,-86 2386.83,-122"/>
<text text-anchor="middle" x="2339" y="-99.8" font-family="Times,serif" font-size="14.00">FormsModule</text>
</g>
<!-- FormsModule&#45;&gt;AppModule -->
<g id="edge25" class="edge"><title>FormsModule&#45;&gt;AppModule</title>
<path fill="none" stroke="black" d="M2339,-122.187C2339,-137.182 2339,-156 2339,-156 2339,-156 2537.16,-156 2537.16,-156"/>
<polygon fill="black" stroke="black" points="2537.16,-159.5 2547.16,-156 2537.16,-152.5 2537.16,-159.5"/>
</g>
<!-- HttpModule -->
<g id="node28" class="node"><title>HttpModule</title>
<polygon fill="#8dd3c7" stroke="black" points="2273.44,-122 2270.44,-126 2249.44,-126 2246.44,-122 2188.56,-122 2188.56,-86 2273.44,-86 2273.44,-122"/>
<text text-anchor="middle" x="2231" y="-99.8" font-family="Times,serif" font-size="14.00">HttpModule</text>
</g>
<!-- HttpModule&#45;&gt;AppModule -->
<g id="edge26" class="edge"><title>HttpModule&#45;&gt;AppModule</title>
<path fill="none" stroke="black" d="M2231,-122.282C2231,-137.948 2231,-158 2231,-158 2231,-158 2537.23,-158 2537.23,-158"/>
<polygon fill="black" stroke="black" points="2537.23,-161.5 2547.23,-158 2537.23,-154.5 2537.23,-161.5"/>
</g>
<!-- routing -->
<g id="node29" class="node"><title>routing</title>
<polygon fill="#8dd3c7" stroke="black" points="2171.44,-122 2168.44,-126 2147.44,-126 2144.44,-122 2114.56,-122 2114.56,-86 2171.44,-86 2171.44,-122"/>
<text text-anchor="middle" x="2143" y="-99.8" font-family="Times,serif" font-size="14.00">routing</text>
</g>
<!-- routing&#45;&gt;AppModule -->
<g id="edge27" class="edge"><title>routing&#45;&gt;AppModule</title>
<path fill="none" stroke="black" d="M2143,-122.027C2143,-138.398 2143,-160 2143,-160 2143,-160 2537.04,-160 2537.04,-160"/>
<polygon fill="black" stroke="black" points="2537.04,-163.5 2547.04,-160 2537.04,-156.5 2537.04,-163.5"/>
</g>
<!-- JsonpModule -->
<g id="node30" class="node"><title>JsonpModule</title>
<polygon fill="#8dd3c7" stroke="black" points="2096.94,-122 2093.94,-126 2072.94,-126 2069.94,-122 2005.06,-122 2005.06,-86 2096.94,-86 2096.94,-122"/>
<text text-anchor="middle" x="2051" y="-99.8" font-family="Times,serif" font-size="14.00">JsonpModule</text>
</g>
<!-- JsonpModule&#45;&gt;AppModule -->
<g id="edge28" class="edge"><title>JsonpModule&#45;&gt;AppModule</title>
<path fill="none" stroke="black" d="M2051,-122.023C2051,-139.373 2051,-163 2051,-163 2051,-163 2537.23,-163 2537.23,-163"/>
<polygon fill="black" stroke="black" points="2537.23,-166.5 2547.23,-163 2537.23,-159.5 2537.23,-166.5"/>
</g>
<!-- NgxPaginationModule -->
<g id="node31" class="node"><title>NgxPaginationModule</title>
<polygon fill="#8dd3c7" stroke="black" points="1987.54,-122 1984.54,-126 1963.54,-126 1960.54,-122 1844.46,-122 1844.46,-86 1987.54,-86 1987.54,-122"/>
<text text-anchor="middle" x="1916" y="-99.8" font-family="Times,serif" font-size="14.00">NgxPaginationModule</text>
</g>
<!-- NgxPaginationModule&#45;&gt;AppModule -->
<g id="edge29" class="edge"><title>NgxPaginationModule&#45;&gt;AppModule</title>
<path fill="none" stroke="black" d="M1916,-122.302C1916,-140.27 1916,-165 1916,-165 1916,-165 2537.16,-165 2537.16,-165"/>
<polygon fill="black" stroke="black" points="2537.16,-168.5 2547.16,-165 2537.16,-161.5 2537.16,-168.5"/>
</g>
<!-- OfferService -->
<g id="node33" class="node"><title>OfferService</title>
<ellipse fill="#fdb462" stroke="black" cx="1759" cy="-104" rx="60.7889" ry="18"/>
<text text-anchor="middle" x="1759" y="-99.8" font-family="Times,serif" font-size="14.00">OfferService</text>
</g>
<!-- OfferService&#45;&gt;AppModule -->
<g id="edge31" class="edge"><title>OfferService&#45;&gt;AppModule</title>
<path fill="none" stroke="black" d="M1759,-122.222C1759,-140.829 1759,-167 1759,-167 1759,-167 2537.27,-167 2537.27,-167"/>
<polygon fill="black" stroke="black" points="2537.27,-170.5 2547.27,-167 2537.27,-163.5 2537.27,-170.5"/>
</g>
<!-- UserService -->
<g id="node34" class="node"><title>UserService</title>
<ellipse fill="#fdb462" stroke="black" cx="1622" cy="-104" rx="58.4415" ry="18"/>
<text text-anchor="middle" x="1622" y="-99.8" font-family="Times,serif" font-size="14.00">UserService</text>
</g>
<!-- UserService&#45;&gt;AppModule -->
<g id="edge32" class="edge"><title>UserService&#45;&gt;AppModule</title>
<path fill="none" stroke="black" d="M1622,-122.106C1622,-141.339 1622,-169 1622,-169 1622,-169 2537.14,-169 2537.14,-169"/>
<polygon fill="black" stroke="black" points="2537.14,-172.5 2547.14,-169 2537.14,-165.5 2537.14,-172.5"/>
</g>
<!-- SigninService -->
<g id="node35" class="node"><title>SigninService</title>
<ellipse fill="#fdb462" stroke="black" cx="1481" cy="-104" rx="65.4266" ry="18"/>
<text text-anchor="middle" x="1481" y="-99.8" font-family="Times,serif" font-size="14.00">SigninService</text>
</g>
<!-- SigninService&#45;&gt;AppModule -->
<g id="edge33" class="edge"><title>SigninService&#45;&gt;AppModule</title>
<path fill="none" stroke="black" d="M1481,-122.223C1481,-142.365 1481,-172 1481,-172 1481,-172 2537.25,-172 2537.25,-172"/>
<polygon fill="black" stroke="black" points="2537.25,-175.5 2547.25,-172 2537.25,-168.5 2537.25,-175.5"/>
</g>
<!-- HttpClient -->
<g id="node36" class="node"><title>HttpClient</title>
<ellipse fill="#fdb462" stroke="black" cx="1346" cy="-104" rx="51.6208" ry="18"/>
<text text-anchor="middle" x="1346" y="-99.8" font-family="Times,serif" font-size="14.00">HttpClient</text>
</g>
<!-- HttpClient&#45;&gt;AppModule -->
<g id="edge34" class="edge"><title>HttpClient&#45;&gt;AppModule</title>
<path fill="none" stroke="black" d="M1346,-122.027C1346,-142.767 1346,-174 1346,-174 1346,-174 2537.29,-174 2537.29,-174"/>
<polygon fill="black" stroke="black" points="2537.29,-177.5 2547.29,-174 2537.29,-170.5 2537.29,-177.5"/>
</g>
<!-- IndexService -->
<g id="node37" class="node"><title>IndexService</title>
<ellipse fill="#fdb462" stroke="black" cx="1214" cy="-104" rx="61.9577" ry="18"/>
<text text-anchor="middle" x="1214" y="-99.8" font-family="Times,serif" font-size="14.00">IndexService</text>
</g>
<!-- IndexService&#45;&gt;AppModule -->
<g id="edge35" class="edge"><title>IndexService&#45;&gt;AppModule</title>
<path fill="none" stroke="black" d="M1214,-122.169C1214,-143.498 1214,-176 1214,-176 1214,-176 2537.1,-176 2537.1,-176"/>
<polygon fill="black" stroke="black" points="2537.1,-179.5 2547.1,-176 2537.1,-172.5 2537.1,-179.5"/>
</g>
<!-- RegisterService -->
<g id="node38" class="node"><title>RegisterService</title>
<ellipse fill="#fdb462" stroke="black" cx="1062" cy="-104" rx="72.3439" ry="18"/>
<text text-anchor="middle" x="1062" y="-99.8" font-family="Times,serif" font-size="14.00">RegisterService</text>
</g>
<!-- RegisterService&#45;&gt;AppModule -->
<g id="edge36" class="edge"><title>RegisterService&#45;&gt;AppModule</title>
<path fill="none" stroke="black" d="M1062,-122.292C1062,-144.206 1062,-178 1062,-178 1062,-178 2536.97,-178 2536.97,-178"/>
<polygon fill="black" stroke="black" points="2536.97,-181.5 2546.97,-178 2536.97,-174.5 2536.97,-181.5"/>
</g>
<!-- AdminService -->
<g id="node39" class="node"><title>AdminService</title>
<ellipse fill="#fdb462" stroke="black" cx="905" cy="-104" rx="66.6325" ry="18"/>
<text text-anchor="middle" x="905" y="-99.8" font-family="Times,serif" font-size="14.00">AdminService</text>
</g>
<!-- AdminService&#45;&gt;AppModule -->
<g id="edge37" class="edge"><title>AdminService&#45;&gt;AppModule</title>
<path fill="none" stroke="black" d="M905,-122.248C905,-145.018 905,-181 905,-181 905,-181 2536.95,-181 2536.95,-181"/>
<polygon fill="black" stroke="black" points="2536.95,-184.5 2546.95,-181 2536.95,-177.5 2536.95,-184.5"/>
</g>
</g>
</svg>
